HIERARCHY
ROOT Hips
{
	OFFSET 0.000000 35.082581 0.000000
	CHANNELS 6 Xposition Yposition Zposition Xrotation Yrotation Zrotation 
	JOINT Spine
	{
		OFFSET 0.000000 6.876099 0.125700
		CHANNELS 3 Xrotation Yrotation Zrotation
		JOINT Spine1
		{
			OFFSET 0.000000 5.730043 0.104720
			CHANNELS 3 Xrotation Yrotation Zrotation
			JOINT Spine1_split
			{
				OFFSET 0.000000 5.730043 0.104720
				CHANNELS 3 Xrotation Yrotation Zrotation
				JOINT Spine2
				{
					OFFSET 0.000000 5.730043 0.104720
					CHANNELS 3 Xrotation Yrotation Zrotation
					JOINT Neck
					{
						OFFSET 0.000000 10.314075 0.188496
						CHANNELS 3 Xrotation Yrotation Zrotation
						JOINT Head
						{
							OFFSET 0.000000 7.643700 -2.377400
							CHANNELS 3 Xrotation Yrotation Zrotation
							JOINT HeadTop_End
							{
								OFFSET 0.000000 43.788605 -13.619600
								CHANNELS 3 Xrotation Yrotation Zrotation
								End Site
								{
									OFFSET 0.000000 0.000000 0.000000
								}
							}
						}
					}
					JOINT LeftShoulder
					{
						OFFSET 2.196100 4.412489 0.087492
						CHANNELS 3 Xrotation Yrotation Zrotation
						JOINT LeftShoulder_split
						{
							OFFSET 2.196100 4.412489 0.087492
							CHANNELS 3 Xrotation Yrotation Zrotation
							JOINT LeftArm
							{
								OFFSET 8.771219 -2.981674 -0.026999
								CHANNELS 3 Xrotation Yrotation Zrotation
								JOINT LeftForeArm
								{
									OFFSET 8.512804 0.000000 -0.000000
									CHANNELS 3 Xrotation Yrotation Zrotation
									JOINT LeftHand
									{
										OFFSET 18.484802 0.000000 -0.000000
										CHANNELS 3 Xrotation Yrotation Zrotation
										JOINT LeftHandThumb1
										{
											OFFSET 2.499420 -1.158070 2.653252
											CHANNELS 3 Xrotation Yrotation Zrotation
											JOINT LeftHandThumb2
											{
												OFFSET 2.370079 -1.368366 1.368366
												CHANNELS 3 Xrotation Yrotation Zrotation
												JOINT LeftHandThumb3
												{
													OFFSET 2.676727 -1.545410 1.545409
													CHANNELS 3 Xrotation Yrotation Zrotation
													JOINT LeftHandThumb4
													{
														OFFSET 1.692226 -0.977005 0.977007
														CHANNELS 3 Xrotation Yrotation Zrotation
														End Site
														{
															OFFSET 0.000000 0.000000 0.000000
														}
													}
												}
											}
										}
										JOINT LeftHandIndex1
										{
											OFFSET 7.924831 -0.457527 2.345128
											CHANNELS 3 Xrotation Yrotation Zrotation
											JOINT LeftHandIndex2
											{
												OFFSET 3.643303 0.000000 0.000000
												CHANNELS 3 Xrotation Yrotation Zrotation
												JOINT LeftHandIndex3
												{
													OFFSET 3.810799 0.000000 0.000000
													CHANNELS 3 Xrotation Yrotation Zrotation
													JOINT LeftHandIndex4
													{
														OFFSET 2.403702 0.000000 0.000000
														CHANNELS 3 Xrotation Yrotation Zrotation
														End Site
														{
															OFFSET 0.000000 0.000000 0.000000
														}
													}
												}
											}
										}
										JOINT LeftHandMiddle1
										{
											OFFSET 8.563995 0.000000 -0.000000
											CHANNELS 3 Xrotation Yrotation Zrotation
											JOINT LeftHandMiddle2
											{
												OFFSET 3.861618 0.000000 0.000000
												CHANNELS 3 Xrotation Yrotation Zrotation
												JOINT LeftHandMiddle3
												{
													OFFSET 3.701603 0.000000 0.000000
													CHANNELS 3 Xrotation Yrotation Zrotation
													JOINT LeftHandMiddle4
													{
														OFFSET 2.322544 0.000000 0.000000
														CHANNELS 3 Xrotation Yrotation Zrotation
														End Site
														{
															OFFSET 0.000000 0.000000 0.000000
														}
													}
												}
											}
										}
										JOINT LeftHandRing1
										{
											OFFSET 8.426460 -0.424637 -3.286992
											CHANNELS 3 Xrotation Yrotation Zrotation
											JOINT LeftHandRing2
											{
												OFFSET 3.126408 0.000000 0.000000
												CHANNELS 3 Xrotation Yrotation Zrotation
												JOINT LeftHandRing3
												{
													OFFSET 3.085026 0.000000 0.000000
													CHANNELS 3 Xrotation Yrotation Zrotation
													JOINT LeftHandRing4
													{
														OFFSET 1.644005 0.000000 0.000000
														CHANNELS 3 Xrotation Yrotation Zrotation
														End Site
														{
															OFFSET 0.000000 0.000000 0.000000
														}
													}
												}
											}
										}
									}
								}
							}
						}
					}
					JOINT RightShoulder
					{
						OFFSET -2.196100 4.412496 0.070690
						CHANNELS 3 Xrotation Yrotation Zrotation
						JOINT RightShoulder_split
						{
							OFFSET -2.196100 4.412496 0.070690
							CHANNELS 3 Xrotation Yrotation Zrotation
							JOINT RightArm
							{
								OFFSET -8.771282 -2.981682 -0.094208
								CHANNELS 3 Xrotation Yrotation Zrotation
								JOINT RightForeArm
								{
									OFFSET -8.494598 0.000000 0.000000
									CHANNELS 3 Xrotation Yrotation Zrotation
									JOINT RightHand
									{
										OFFSET -18.483803 0.000000 0.000001
										CHANNELS 3 Xrotation Yrotation Zrotation
										JOINT RightHandThumb1
										{
											OFFSET -2.527351 -1.008072 2.575253
											CHANNELS 3 Xrotation Yrotation Zrotation
											JOINT RightHandThumb2
											{
												OFFSET -2.321518 -1.340328 1.340329
												CHANNELS 3 Xrotation Yrotation Zrotation
												JOINT RightHandThumb3
												{
													OFFSET -2.657753 -1.534454 1.534455
													CHANNELS 3 Xrotation Yrotation Zrotation
													JOINT RightHandThumb4
													{
														OFFSET -1.807510 -1.043568 1.043567
														CHANNELS 3 Xrotation Yrotation Zrotation
														End Site
														{
															OFFSET 0.000000 0.000000 0.000000
														}
													}
												}
											}
										}
										JOINT RightHandIndex1
										{
											OFFSET -8.811420 0.015533 2.887987
											CHANNELS 3 Xrotation Yrotation Zrotation
											JOINT RightHandIndex2
											{
												OFFSET -3.537502 0.000000 0.000000
												CHANNELS 3 Xrotation Yrotation Zrotation
												JOINT RightHandIndex3
												{
													OFFSET -3.356201 0.000000 0.000000
													CHANNELS 3 Xrotation Yrotation Zrotation
													JOINT RightHandIndex4
													{
														OFFSET -1.933098 0.000000 0.000000
														CHANNELS 3 Xrotation Yrotation Zrotation
														End Site
														{
															OFFSET 0.000000 0.000000 0.000000
														}
													}
												}
											}
										}
										JOINT RightHandMiddle1
										{
											OFFSET -8.178135 0.000000 0.000000
											CHANNELS 3 Xrotation Yrotation Zrotation
											JOINT RightHandMiddle2
											{
												OFFSET -3.901302 0.000000 0.000000
												CHANNELS 3 Xrotation Yrotation Zrotation
												JOINT RightHandMiddle3
												{
													OFFSET -3.909599 0.000000 0.000000
													CHANNELS 3 Xrotation Yrotation Zrotation
													JOINT RightHandMiddle4
													{
														OFFSET -2.376003 0.000000 0.000000
														CHANNELS 3 Xrotation Yrotation Zrotation
														End Site
														{
															OFFSET 0.000000 0.000000 0.000000
														}
													}
												}
											}
										}
										JOINT RightHandRing1
										{
											OFFSET -7.559013 0.014137 -2.865403
											CHANNELS 3 Xrotation Yrotation Zrotation
											JOINT RightHandRing2
											{
												OFFSET -3.449306 0.000000 0.000000
												CHANNELS 3 Xrotation Yrotation Zrotation
												JOINT RightHandRing3
												{
													OFFSET -3.362106 0.000000 0.000000
													CHANNELS 3 Xrotation Yrotation Zrotation
													JOINT RightHandRing4
													{
														OFFSET -2.076401 0.000000 0.000000
														CHANNELS 3 Xrotation Yrotation Zrotation
														End Site
														{
															OFFSET 0.000000 0.000000 0.000000
														}
													}
												}
											}
										}
									}
								}
							}
						}
					}
				}
			}
		}
	}
	JOINT LeftUpLeg
	{
		OFFSET 10.205400 -3.823500 0.155100
		CHANNELS 3 Xrotation Yrotation Zrotation
		JOINT LeftLeg
		{
			OFFSET 0.708757 -12.982077 0.567790
			CHANNELS 3 Xrotation Yrotation Zrotation
			JOINT LeftFoot
			{
				OFFSET -0.708756 -10.717838 -2.184338
				CHANNELS 3 Xrotation Yrotation Zrotation
				JOINT LeftToeBase
				{
					OFFSET 0.108149 -7.191104 7.560241
					CHANNELS 3 Xrotation Yrotation Zrotation
					JOINT LeftToe_End
					{
						OFFSET 0.070230 0.081724 4.490308
						CHANNELS 3 Xrotation Yrotation Zrotation
						End Site
						{
							OFFSET 0.000000 0.000000 0.000000
						}
					}
				}
			}
		}
	}
	JOINT RightUpLeg
	{
		OFFSET -10.205400 -3.823500 0.005500
		CHANNELS 3 Xrotation Yrotation Zrotation
		JOINT RightLeg
		{
			OFFSET -0.708756 -12.982134 0.610632
			CHANNELS 3 Xrotation Yrotation Zrotation
			JOINT RightFoot
			{
				OFFSET 0.708754 -10.717769 -1.945823
				CHANNELS 3 Xrotation Yrotation Zrotation
				JOINT RightToeBase
				{
					OFFSET -0.108140 -7.191069 7.372968
					CHANNELS 3 Xrotation Yrotation Zrotation
					JOINT RightToe_End
					{
						OFFSET -0.070227 0.081735 4.479403
						CHANNELS 3 Xrotation Yrotation Zrotation
						End Site
						{
							OFFSET 0.000000 0.000000 0.000000
						}
					}
				}
			}
		}
	}
}
MOTION
Frames: 6
Frame Time: 0.016667
1.219245 30.532207 -16.729963 17.405791 0.355740 0.659825 0.284014 -0.389257 -0.633239 0.653932 -1.830908 -1.052586 0.000000 0.000000 0.000000 0.655738 -1.831693 -1.049994 -2.996394 1.119226 0.316273 -6.032478 6.098675 -0.632912 -0.000000 -0.000000 0.000000 0.085456 3.935088 -2.580578 0.000000 0.000000 0.000000 -56.776258 -47.958788 -86.499633 -0.000049 -99.510085 -0.000064 30.651471 -40.355831 1.595643 -1.514530 3.689236 6.142645 3.939048 7.948696 0.746798 -0.579460 1.574995 2.538721 0.000001 0.000002 0.000006 -0.000002 -0.000043 0.000431 -0.000008 -0.000002 0.000002 0.000001 -0.000001 -0.000005 -0.000000 -0.000001 0.000003 -0.000003 -0.001975 0.016410 -0.000006 0.001933 -0.015989 0.000003 0.000004 0.000007 0.000001 0.000001 0.000002 -0.000009 -0.000049 0.000416 0.000012 0.000012 -0.000024 -0.000004 0.000005 0.000002 -0.000000 -0.000001 0.000000 0.341132 -4.421362 7.505422 0.000000 0.000000 0.000000 11.665822 -24.096282 54.698416 0.000001 14.091793 0.000009 26.699592 -41.006892 9.432755 -1.738601 -3.581796 -6.586132 4.637200 -8.634133 -0.225410 -1.273758 0.137300 -2.094878 0.000001 0.000003 0.000002 -0.000007 -0.000004 0.000000 0.000002 -0.000002 0.000015 -0.000007 -0.000002 0.000003 0.000001 0.000001 -0.000001 0.000000 0.000004 0.000003 -0.000005 -0.000003 0.000002 -0.000001 0.000005 -0.000003 -0.000003 -0.000000 0.000001 -0.000004 -0.000000 0.000007 0.000008 0.000011 0.000003 -0.000001 -0.000004 -0.000001 0.000001 -0.000000 0.000000 -36.380361 15.942242 -20.138234 50.719206 17.149430 -8.406859 -30.724066 24.742002 16.670724 -14.087534 -0.002986 0.084692 -0.000000 0.000003 0.000000 19.004363 1.274058 18.815547 -3.659173 -10.344437 -3.924600 -28.415537 -9.633499 -13.597388 -15.090249 0.000017 0.000002 0.000001 -0.000003 0.000000 
1.331810 30.096558 -17.149567 17.857909 -1.177802 0.769203 0.377793 -0.277279 -0.488439 0.839432 -1.490123 -1.005000 0.000000 0.000000 0.000000 0.841786 -1.490087 -1.003032 -3.381187 1.278225 -0.024141 -7.092500 6.514984 -1.017365 0.000000 0.000000 0.000000 0.066344 4.092690 -2.749961 0.000000 0.000000 0.000000 -57.966825 -48.075133 -87.079776 -0.000118 -99.827067 -0.000159 31.096567 -40.241566 3.113302 -1.513109 3.689496 6.142571 3.939052 7.948696 0.746799 -0.579457 1.575001 2.538721 -0.000000 0.000004 0.000003 0.000003 -0.000031 0.000299 -0.000006 -0.000000 0.000006 0.000003 -0.000002 -0.000000 0.000001 0.000000 0.000002 -0.000006 -0.001975 0.016284 -0.000007 0.001931 -0.015992 0.000006 0.000007 0.000000 0.000001 0.000001 -0.000000 0.000002 -0.000036 0.000302 0.000013 0.000013 -0.000020 -0.000003 0.000005 0.000003 0.000001 -0.000001 -0.000002 0.357817 -4.128328 7.237662 0.000000 0.000000 0.000000 10.151501 -21.429744 54.766533 -0.000002 14.120301 -0.000006 21.523132 -41.883304 3.636415 -1.739455 -3.581787 -6.586147 4.637198 -8.634137 -0.225413 -1.273757 0.137303 -2.094878 0.000004 0.000004 -0.000001 -0.000001 -0.000001 -0.000007 0.000008 -0.000001 0.000013 -0.000008 -0.000002 0.000003 -0.000001 -0.000001 0.000001 -0.000009 0.000001 -0.000002 -0.000007 -0.000005 0.000002 -0.000001 0.000004 -0.000003 -0.000001 0.000001 -0.000001 -0.000003 0.000001 0.000001 0.000008 0.000008 0.000001 0.000000 -0.000002 -0.000002 0.000002 0.000000 0.000000 -37.175319 16.489115 -20.325613 51.716113 17.904754 -8.299147 -34.541971 23.674037 17.848558 -11.716893 -0.000007 -0.000010 0.000000 -0.000001 -0.000000 20.379758 2.535158 18.573653 -8.217947 -9.341776 -4.332955 -29.783918 -7.723793 -14.867160 -9.268049 0.000011 0.000003 0.000000 0.000001 0.000000 
1.399544 29.860245 -17.419308 18.239988 -2.633265 0.886798 0.492518 -0.198281 -0.288659 1.063924 -1.195068 -0.944049 0.000000 0.000000 0.000000 1.066432 -1.193946 -0.942641 -3.717273 1.476828 -0.421960 -7.822809 7.031211 -1.337921 0.000000 -0.000000 -0.000000 0.049188 4.276959 -3.011947 0.000000 0.000000 0.000000 -58.871135 -48.137319 -87.986791 -0.000034 -99.805053 -0.000038 31.520667 -40.160904 4.450589 -1.511690 3.689921 6.142443 3.939047 7.948696 0.746799 -0.579459 1.574993 2.538723 0.000003 0.000006 0.000003 -0.000012 -0.000018 0.000117 -0.000007 -0.000002 0.000004 0.000002 -0.000002 0.000000 0.000001 -0.000000 0.000006 0.000000 -0.001940 0.016101 -0.000007 0.001934 -0.015993 0.000004 0.000006 -0.000004 0.000000 0.000000 -0.000003 -0.000010 -0.000014 0.000113 0.000010 0.000011 -0.000018 -0.000003 0.000005 0.000003 0.000000 0.000000 0.000002 0.384402 -3.724210 6.943406 0.000000 0.000000 0.000000 8.764614 -19.063048 55.509962 -0.000003 13.884469 -0.000002 18.000999 -41.050267 -0.615204 -1.740316 -3.581768 -6.586138 4.637196 -8.634137 -0.225411 -1.273759 0.137305 -2.094871 0.000001 0.000007 -0.000004 0.000006 0.000003 -0.000004 0.000006 -0.000003 0.000012 -0.000008 -0.000002 0.000004 0.000002 0.000002 0.000000 0.000007 0.000006 -0.000011 -0.000004 -0.000004 0.000003 0.000001 -0.000001 -0.000003 0.000001 -0.000001 -0.000000 0.000006 0.000004 -0.000000 0.000007 0.000008 0.000002 -0.000006 -0.000004 -0.000000 0.000001 -0.000001 0.000002 -37.385314 16.864509 -20.194378 51.924816 18.525227 -8.185020 -37.109166 22.801268 18.359494 -11.979438 -0.000002 0.000003 -0.000000 -0.000001 0.000000 18.416126 2.550021 17.948124 -5.274683 -9.217175 -4.343358 -32.959170 -6.176549 -14.334416 -5.939074 0.000009 -0.000000 0.000000 0.000002 0.000000 
1.414796 29.851242 -17.532307 18.506628 -3.764598 1.081083 0.608274 -0.184462 -0.195275 1.276140 -1.018728 -0.918999 0.000000 0.000000 0.000000 1.278436 -1.016639 -0.918154 -3.909944 1.673041 -0.755795 -7.960283 7.572398 -1.496249 0.000000 -0.000000 0.000000 0.039476 4.456463 -3.348959 0.000000 0.000000 0.000000 -59.308623 -48.121186 -89.167239 -0.000120 -99.399545 -0.000135 32.005348 -40.115122 5.419628 -1.510270 3.690286 6.142327 3.939044 7.948695 0.746798 -0.579458 1.574996 2.538723 0.000002 0.000002 0.000001 -0.000002 0.000009 -0.000045 -0.000007 -0.000001 0.000006 0.000001 0.000001 -0.000003 -0.000000 0.000000 0.000001 -0.000003 -0.001920 0.015930 -0.000006 0.001932 -0.015988 0.000006 0.000006 -0.000002 0.000000 -0.000001 0.000003 0.000003 0.000012 -0.000047 0.000012 0.000011 -0.000021 -0.000004 0.000006 0.000006 0.000001 -0.000000 -0.000005 0.415933 -3.288748 6.675743 0.000000 0.000000 0.000000 7.596395 -17.110580 56.723488 -0.000004 13.340009 -0.000002 17.398824 -38.577817 -1.820679 -1.741183 -3.581799 -6.586130 4.637203 -8.634130 -0.225410 -1.273756 0.137304 -2.094876 0.000002 0.000006 -0.000003 0.000011 -0.000003 -0.000008 0.000003 -0.000005 0.000016 -0.000009 -0.000001 0.000003 -0.000003 0.000001 -0.000000 -0.000003 -0.000001 -0.000001 -0.000007 -0.000002 0.000000 0.000000 0.000005 -0.000001 0.000001 0.000000 -0.000001 0.000009 -0.000005 -0.000010 0.000005 0.000006 0.000004 -0.000003 -0.000005 -0.000000 -0.000002 0.000001 0.000001 -37.098729 17.047375 -19.917540 51.307746 18.835314 -8.089364 -37.994549 22.330258 18.360962 -12.554414 -0.000014 -0.000000 0.000000 0.000002 0.000000 16.054578 2.271742 17.232333 -1.341928 -9.407354 -4.188455 -34.910039 -5.346763 -13.198308 -5.112050 0.000003 0.000002 0.000000 0.000001 -0.000000 
1.374384 30.092812 -17.498203 18.587839 -4.305003 1.411994 0.729656 -0.295622 -0.369997 1.462662 -1.018494 -0.974987 0.000000 0.000000 0.000000 1.464477 -1.015910 -0.975017 -3.898224 1.820925 -0.923153 -7.352195 8.039163 -1.462534 0.000001 0.000000 -0.000000 0.041106 4.597991 -3.728558 0.000000 0.000000 0.000000 -59.199299 -48.027510 -90.513858 -0.000068 -98.622297 -0.000088 32.627691 -40.090502 5.873868 -1.508838 3.690470 6.142271 3.939046 7.948692 0.746800 -0.579458 1.574997 2.538725 0.000001 0.000001 0.000003 -0.000004 0.000018 -0.000121 -0.000011 -0.000003 0.000005 -0.000001 0.000001 -0.000004 0.000000 0.000001 -0.000002 -0.000004 -0.001913 0.015850 -0.000007 0.001931 -0.015989 0.000005 0.000004 -0.000001 -0.000001 0.000001 -0.000002 -0.000007 0.000013 -0.000129 0.000013 0.000012 -0.000024 -0.000004 0.000004 0.000001 -0.000001 0.000002 -0.000005 0.445535 -2.911935 6.484956 0.000000 0.000000 0.000000 6.747461 -15.608323 58.169545 0.000000 12.515663 0.000006 19.690998 -34.679753 0.324484 -1.742060 -3.581793 -6.586132 4.637199 -8.634136 -0.225411 -1.273755 0.137304 -2.094879 0.000005 -0.000003 -0.000004 0.000005 -0.000004 -0.000008 0.000002 -0.000004 0.000013 -0.000008 -0.000002 0.000007 -0.000001 -0.000001 -0.000000 -0.000001 -0.000010 0.000001 -0.000009 0.000002 0.000003 0.000003 0.000004 -0.000004 0.000001 -0.000003 -0.000001 -0.000003 -0.000014 -0.000010 0.000013 0.000008 0.000002 -0.000005 -0.000004 -0.000001 -0.000000 0.000003 0.000000 -36.198227 16.844034 -19.708776 49.491349 18.703346 -8.008238 -36.924013 22.333139 18.083704 -13.321882 0.000000 -0.000011 -0.000001 0.000001 0.000000 14.056487 1.837931 16.472162 2.062897 -9.729621 -3.992061 -34.925493 -5.303919 -11.770147 -6.760156 -0.000001 -0.000002 -0.000000 -0.000001 -0.000000 
1.284436 30.574471 -17.331940 18.421498 -4.106034 1.813254 0.854037 -0.554508 -0.799209 1.617531 -1.227441 -1.117238 0.000000 0.000000 0.000000 1.618345 -1.224948 -1.118851 -3.681349 1.891449 -0.884525 -5.983183 8.358365 -1.289585 0.000002 0.000000 0.000000 0.055056 4.676235 -4.114098 0.000000 0.000000 0.000000 -58.580654 -47.874975 -91.886583 0.000020 -97.541488 0.000003 33.429531 -40.092500 5.731527 -1.507427 3.690483 6.142246 3.939044 7.948691 0.746798 -0.579461 1.574997 2.538725 -0.000001 -0.000002 0.000002 0.000001 0.000020 -0.000148 -0.000007 -0.000003 0.000005 0.000000 -0.000002 -0.000002 0.000001 -0.000001 -0.000001 -0.000008 -0.001917 0.015845 -0.000008 0.001931 -0.015995 0.000006 0.000005 0.000000 0.000001 -0.000001 0.000001 -0.000006 0.000013 -0.000147 0.000010 0.000010 -0.000026 -0.000002 0.000008 -0.000002 0.000000 -0.000002 0.000001 0.467429 -2.663686 6.401676 0.000000 0.000000 0.000000 6.289556 -14.521472 59.625113 0.000001 11.522300 -0.000001 23.761036 -29.557189 5.058547 -1.742967 -3.581793 -6.586124 4.637200 -8.634139 -0.225414 -1.273755 0.137307 -2.094876 0.000002 0.000006 0.000000 0.000004 0.000003 0.000000 0.000004 -0.000001 0.000013 -0.000012 0.000001 0.000003 0.000001 -0.000000 0.000001 0.000003 0.000009 -0.000001 -0.000010 -0.000004 0.000002 0.000002 0.000001 -0.000002 -0.000002 -0.000002 0.000002 -0.000002 -0.000003 0.000003 0.000010 0.000008 0.000002 0.000001 -0.000008 -0.000001 0.000001 -0.000000 -0.000001 -34.597012 16.020478 -19.588381 46.310117 18.149493 -7.917157 -33.996836 22.777520 17.582304 -14.555541 -0.000006 -0.000003 0.000001 0.000001 0.000000 12.081531 1.032696 15.496752 5.816010 -10.199154 -3.629113 -33.283621 -5.712955 -9.731246 -10.910836 0.000007 -0.000001 0.000001 -0.000002 -0.000000 
